<svg width="51" height="46" viewBox="0 0 51 46" fill="none" xmlns="http://www.w3.org/2000/svg">
<path d="M32.6401 4.1128L49.7277 32.5734C52.1833 36.6611 50.9772 42.039 47.0323 44.584C45.7083 45.4412 44.165 45.8981 42.5877 45.8998H8.40992C3.76636 45.8998 0 41.9982 0 37.1813C0 35.5518 0.441151 33.9581 1.2699 32.5734L18.36 4.1128C20.8132 0.0251389 25.9999 -1.22691 29.9447 1.31799C31.0361 2.02179 31.9592 2.97805 32.6401 4.1128ZM26.9791 6.25225C26.6669 6.05146 26.3173 5.91603 25.9513 5.85414C25.5853 5.79226 25.2106 5.8052 24.8497 5.89219C24.4889 5.97918 24.1494 6.13842 23.8518 6.36028C23.5543 6.58214 23.3047 6.86202 23.1184 7.18301L6.03077 35.6487C5.75319 36.1126 5.60688 36.6432 5.60746 37.1838C5.60746 38.7903 6.86207 40.0908 8.41247 40.0908H42.5851C43.1104 40.0908 43.623 39.9378 44.0667 39.6522C44.7034 39.2292 45.1523 38.5769 45.32 37.8311C45.4877 37.0853 45.3612 36.3036 44.9668 35.6487L27.8792 7.18301C27.6551 6.80821 27.348 6.4898 26.9816 6.25225H26.9791ZM25.5001 35.6997C24.8238 35.6997 24.1752 35.4311 23.6969 34.9528C23.2187 34.4746 22.9501 33.826 22.9501 33.1497C22.9501 32.4734 23.2187 31.8248 23.6969 31.3466C24.1752 30.8684 24.8238 30.5997 25.5001 30.5997C26.1764 30.5997 26.825 30.8684 27.3032 31.3466C27.7814 31.8248 28.0501 32.4734 28.0501 33.1497C28.0501 33.826 27.7814 34.4746 27.3032 34.9528C26.825 35.4311 26.1764 35.6997 25.5001 35.6997ZM25.5001 12.7497C26.1764 12.7497 26.825 13.0183 27.3032 13.4966C27.7814 13.9748 28.0501 14.6234 28.0501 15.2997V25.4997C28.0501 26.176 27.7814 26.8246 27.3032 27.3028C26.825 27.781 26.1764 28.0497 25.5001 28.0497C24.8238 28.0497 24.1752 27.781 23.6969 27.3028C23.2187 26.8246 22.9501 26.176 22.9501 25.4997V15.2997C22.9501 14.6234 23.2187 13.9748 23.6969 13.4966C24.1752 13.0183 24.8238 12.7497 25.5001 12.7497Z" fill="#D7A610"/>
</svg>
