<svg width="31" height="20" viewBox="0 0 31 20" fill="none" xmlns="http://www.w3.org/2000/svg">
<path d="M2.21429 0H28.7857C29.373 0 29.9362 0.210714 30.3514 0.585786C30.7667 0.960859 31 1.46957 31 2C31 2.53043 30.7667 3.03914 30.3514 3.41421C29.9362 3.78929 29.373 4 28.7857 4H2.21429C1.62702 4 1.06381 3.78929 0.648549 3.41421C0.23329 3.03914 0 2.53043 0 2C0 1.46957 0.23329 0.960859 0.648549 0.585786C1.06381 0.210714 1.62702 0 2.21429 0ZM2.21429 16H28.7857C29.373 16 29.9362 16.2107 30.3514 16.5858C30.7667 16.9609 31 17.4696 31 18C31 18.5304 30.7667 19.0391 30.3514 19.4142C29.9362 19.7893 29.373 20 28.7857 20H2.21429C1.62702 20 1.06381 19.7893 0.648549 19.4142C0.23329 19.0391 0 18.5304 0 18C0 17.4696 0.23329 16.9609 0.648549 16.5858C1.06381 16.2107 1.62702 16 2.21429 16ZM2.21429 8H28.7857C29.373 8 29.9362 8.21071 30.3514 8.58579C30.7667 8.96086 31 9.46957 31 10C31 10.5304 30.7667 11.0391 30.3514 11.4142C29.9362 11.7893 29.373 12 28.7857 12H2.21429C1.62702 12 1.06381 11.7893 0.648549 11.4142C0.23329 11.0391 0 10.5304 0 10C0 9.46957 0.23329 8.96086 0.648549 8.58579C1.06381 8.21071 1.62702 8 2.21429 8Z" fill="#BA1313"/>
</svg>
